<mxfile host="Electron" modified="2023-05-29T13:21:17.147Z" agent="Mozilla/5.0 (Windows NT 10.0; Win64; x64) AppleWebKit/537.36 (KHTML, like Gecko) draw.io/21.2.8 Chrome/112.0.5615.165 Electron/24.2.0 Safari/537.36" etag="QqTyfFkZzjzGUXLTulBw" version="21.2.8" type="device">
  <diagram name="Page-1" id="0oa0uu0qR5K2CftN4bq0">
    <mxGraphModel dx="4273" dy="3069" grid="1" gridSize="10" guides="1" tooltips="1" connect="1" arrows="1" fold="1" page="1" pageScale="1" pageWidth="827" pageHeight="1169" math="0" shadow="0">
      <root>
        <mxCell id="0" />
        <mxCell id="1" parent="0" />
        <mxCell id="23ZWPcW0NpWNjmYtjL-m-1" value="B_SHR[0]" style="rounded=0;whiteSpace=wrap;html=1;fontStyle=1" vertex="1" parent="1">
          <mxGeometry x="40" y="520" width="200" height="40" as="geometry" />
        </mxCell>
        <mxCell id="23ZWPcW0NpWNjmYtjL-m-2" value="B_SHR[2]" style="rounded=0;whiteSpace=wrap;html=1;fontStyle=1" vertex="1" parent="1">
          <mxGeometry x="40" y="600" width="200" height="40" as="geometry" />
        </mxCell>
        <mxCell id="23ZWPcW0NpWNjmYtjL-m-3" value="B_SHR[1]" style="rounded=0;whiteSpace=wrap;html=1;fontStyle=1" vertex="1" parent="1">
          <mxGeometry x="40" y="560" width="200" height="40" as="geometry" />
        </mxCell>
        <mxCell id="23ZWPcW0NpWNjmYtjL-m-4" value="B_SHR[N-1]" style="rounded=0;whiteSpace=wrap;html=1;fontStyle=1" vertex="1" parent="1">
          <mxGeometry x="40" y="720" width="200" height="40" as="geometry" />
        </mxCell>
        <mxCell id="23ZWPcW0NpWNjmYtjL-m-5" value="" style="shape=waypoint;sketch=0;fillStyle=solid;size=6;pointerEvents=1;points=[];fillColor=none;resizable=0;rotatable=0;perimeter=centerPerimeter;snapToPoint=1;" vertex="1" parent="1">
          <mxGeometry x="130" y="650" width="20" height="20" as="geometry" />
        </mxCell>
        <mxCell id="23ZWPcW0NpWNjmYtjL-m-6" value="" style="shape=waypoint;sketch=0;fillStyle=solid;size=6;pointerEvents=1;points=[];fillColor=none;resizable=0;rotatable=0;perimeter=centerPerimeter;snapToPoint=1;" vertex="1" parent="1">
          <mxGeometry x="130" y="670" width="20" height="20" as="geometry" />
        </mxCell>
        <mxCell id="23ZWPcW0NpWNjmYtjL-m-7" value="" style="shape=waypoint;sketch=0;fillStyle=solid;size=6;pointerEvents=1;points=[];fillColor=none;resizable=0;rotatable=0;perimeter=centerPerimeter;snapToPoint=1;" vertex="1" parent="1">
          <mxGeometry x="130" y="690" width="20" height="20" as="geometry" />
        </mxCell>
        <mxCell id="23ZWPcW0NpWNjmYtjL-m-8" value="B_CNT_SHR[1]" style="rounded=0;whiteSpace=wrap;html=1;fontStyle=1" vertex="1" parent="1">
          <mxGeometry x="80" y="1080" width="120" height="40" as="geometry" />
        </mxCell>
        <mxCell id="23ZWPcW0NpWNjmYtjL-m-9" value="B_CNT_SHR[2]" style="rounded=0;whiteSpace=wrap;html=1;fontStyle=1" vertex="1" parent="1">
          <mxGeometry x="80" y="1120" width="120" height="40" as="geometry" />
        </mxCell>
        <mxCell id="23ZWPcW0NpWNjmYtjL-m-10" value="B_CNT_SHR[3]" style="rounded=0;whiteSpace=wrap;html=1;fontStyle=1" vertex="1" parent="1">
          <mxGeometry x="80" y="1160" width="120" height="40" as="geometry" />
        </mxCell>
        <mxCell id="23ZWPcW0NpWNjmYtjL-m-11" value="B_CNT_SHR[N-1]" style="rounded=0;whiteSpace=wrap;html=1;fontStyle=1" vertex="1" parent="1">
          <mxGeometry x="80" y="1280" width="120" height="40" as="geometry" />
        </mxCell>
        <mxCell id="23ZWPcW0NpWNjmYtjL-m-12" value="VECTOR_CONCATENATOR" style="rounded=0;whiteSpace=wrap;html=1;fontStyle=1" vertex="1" parent="1">
          <mxGeometry x="400" y="-110" width="240" height="60" as="geometry" />
        </mxCell>
        <mxCell id="23ZWPcW0NpWNjmYtjL-m-13" value="" style="shape=flexArrow;endArrow=classic;html=1;rounded=0;strokeColor=none;fillColor=#8A8A8A;exitX=0.25;exitY=1;exitDx=0;exitDy=0;" edge="1" parent="1" source="23ZWPcW0NpWNjmYtjL-m-12">
          <mxGeometry width="50" height="50" relative="1" as="geometry">
            <mxPoint x="350" y="160" as="sourcePoint" />
            <mxPoint x="460" y="50" as="targetPoint" />
          </mxGeometry>
        </mxCell>
        <mxCell id="23ZWPcW0NpWNjmYtjL-m-14" value="w_SubVector" style="edgeLabel;html=1;align=center;verticalAlign=middle;resizable=0;points=[];rotation=-90;fontStyle=1" vertex="1" connectable="0" parent="23ZWPcW0NpWNjmYtjL-m-13">
          <mxGeometry x="-0.4" relative="1" as="geometry">
            <mxPoint x="-20" y="10" as="offset" />
          </mxGeometry>
        </mxCell>
        <mxCell id="23ZWPcW0NpWNjmYtjL-m-15" value="" style="endArrow=classic;html=1;rounded=0;exitX=0.75;exitY=1;exitDx=0;exitDy=0;" edge="1" parent="1" source="23ZWPcW0NpWNjmYtjL-m-12">
          <mxGeometry width="50" height="50" relative="1" as="geometry">
            <mxPoint x="350" y="160" as="sourcePoint" />
            <mxPoint x="580" y="50" as="targetPoint" />
          </mxGeometry>
        </mxCell>
        <mxCell id="23ZWPcW0NpWNjmYtjL-m-16" value="w_Valid" style="edgeLabel;html=1;align=center;verticalAlign=middle;resizable=0;points=[];fontStyle=1;rotation=-90;" vertex="1" connectable="0" parent="23ZWPcW0NpWNjmYtjL-m-15">
          <mxGeometry x="-0.54" relative="1" as="geometry">
            <mxPoint x="-10" y="27" as="offset" />
          </mxGeometry>
        </mxCell>
        <mxCell id="23ZWPcW0NpWNjmYtjL-m-17" value="CNT1&lt;br&gt;&lt;span style=&quot;font-weight: normal;&quot;&gt;(pre_stage_unit)&lt;/span&gt;" style="rounded=0;whiteSpace=wrap;html=1;fontStyle=1" vertex="1" parent="1">
          <mxGeometry x="400" y="50" width="240" height="60" as="geometry" />
        </mxCell>
        <mxCell id="23ZWPcW0NpWNjmYtjL-m-18" value="" style="shape=flexArrow;endArrow=classic;html=1;rounded=0;strokeColor=none;fillColor=#8A8A8A;exitX=0.25;exitY=1;exitDx=0;exitDy=0;edgeStyle=orthogonalEdgeStyle;entryX=0.5;entryY=0;entryDx=0;entryDy=0;" edge="1" parent="1" source="23ZWPcW0NpWNjmYtjL-m-17" target="23ZWPcW0NpWNjmYtjL-m-1">
          <mxGeometry width="50" height="50" relative="1" as="geometry">
            <mxPoint x="460" y="120" as="sourcePoint" />
            <mxPoint x="460" y="210" as="targetPoint" />
            <Array as="points">
              <mxPoint x="460" y="210" />
              <mxPoint x="140" y="210" />
            </Array>
          </mxGeometry>
        </mxCell>
        <mxCell id="23ZWPcW0NpWNjmYtjL-m-19" value="w_SubVector" style="edgeLabel;html=1;align=center;verticalAlign=middle;resizable=0;points=[];rotation=-90;fontStyle=1" vertex="1" connectable="0" parent="23ZWPcW0NpWNjmYtjL-m-18">
          <mxGeometry x="-0.4" relative="1" as="geometry">
            <mxPoint x="99" y="-50" as="offset" />
          </mxGeometry>
        </mxCell>
        <mxCell id="23ZWPcW0NpWNjmYtjL-m-20" value="" style="shape=flexArrow;endArrow=classic;html=1;rounded=0;strokeColor=none;fillColor=#8A8A8A;exitX=0.25;exitY=1;exitDx=0;exitDy=0;edgeStyle=orthogonalEdgeStyle;entryX=0.5;entryY=0;entryDx=0;entryDy=0;" edge="1" parent="1" target="23ZWPcW0NpWNjmYtjL-m-8">
          <mxGeometry width="50" height="50" relative="1" as="geometry">
            <mxPoint x="519.5" y="110" as="sourcePoint" />
            <mxPoint x="519.5" y="210" as="targetPoint" />
            <Array as="points">
              <mxPoint x="520" y="260" />
              <mxPoint x="320" y="260" />
              <mxPoint x="320" y="1000" />
              <mxPoint x="140" y="1000" />
            </Array>
          </mxGeometry>
        </mxCell>
        <mxCell id="23ZWPcW0NpWNjmYtjL-m-21" value="w_Cnt" style="edgeLabel;html=1;align=center;verticalAlign=middle;resizable=0;points=[];rotation=-90;fontStyle=1" vertex="1" connectable="0" parent="23ZWPcW0NpWNjmYtjL-m-20">
          <mxGeometry x="-0.4" relative="1" as="geometry">
            <mxPoint x="-20" y="10" as="offset" />
          </mxGeometry>
        </mxCell>
        <mxCell id="23ZWPcW0NpWNjmYtjL-m-22" value="" style="endArrow=classic;html=1;rounded=0;" edge="1" parent="1">
          <mxGeometry width="50" height="50" relative="1" as="geometry">
            <mxPoint x="580" y="110" as="sourcePoint" />
            <mxPoint x="580" y="210" as="targetPoint" />
          </mxGeometry>
        </mxCell>
        <mxCell id="23ZWPcW0NpWNjmYtjL-m-23" value="w_NewCnt" style="edgeLabel;html=1;align=center;verticalAlign=middle;resizable=0;points=[];fontStyle=1;rotation=-90;" vertex="1" connectable="0" parent="23ZWPcW0NpWNjmYtjL-m-22">
          <mxGeometry x="-0.54" relative="1" as="geometry">
            <mxPoint x="-10" y="27" as="offset" />
          </mxGeometry>
        </mxCell>
        <mxCell id="23ZWPcW0NpWNjmYtjL-m-25" value="DELAY" style="rounded=0;whiteSpace=wrap;html=1;fontStyle=1;rotation=-90;" vertex="1" parent="1">
          <mxGeometry x="-111.55999999999999" y="-6.280000000000001" width="223.13" height="30" as="geometry" />
        </mxCell>
        <mxCell id="23ZWPcW0NpWNjmYtjL-m-26" value="" style="endArrow=classic;html=1;rounded=0;entryX=1;entryY=0.5;entryDx=0;entryDy=0;" edge="1" parent="1" target="23ZWPcW0NpWNjmYtjL-m-25">
          <mxGeometry width="50" height="50" relative="1" as="geometry">
            <mxPoint x="0.01" y="-160" as="sourcePoint" />
            <mxPoint x="151.57999999999998" y="0.28000000000000114" as="targetPoint" />
          </mxGeometry>
        </mxCell>
        <mxCell id="23ZWPcW0NpWNjmYtjL-m-27" value="i_B_or_A" style="text;html=1;strokeColor=none;fillColor=none;align=center;verticalAlign=middle;whiteSpace=wrap;rounded=0;rotation=-90;fontStyle=1" vertex="1" parent="1">
          <mxGeometry x="-48.42000000000001" y="-149.72" width="60" height="30" as="geometry" />
        </mxCell>
        <mxCell id="23ZWPcW0NpWNjmYtjL-m-31" value="" style="endArrow=classic;html=1;rounded=0;exitX=0;exitY=0.5;exitDx=0;exitDy=0;entryDx=0;entryDy=0;edgeStyle=orthogonalEdgeStyle;entryX=0;entryY=0.5;" edge="1" parent="1" source="23ZWPcW0NpWNjmYtjL-m-25" target="23ZWPcW0NpWNjmYtjL-m-1">
          <mxGeometry width="50" height="50" relative="1" as="geometry">
            <mxPoint x="2" y="298" as="sourcePoint" />
            <mxPoint x="40" y="540" as="targetPoint" />
            <Array as="points">
              <mxPoint y="298" />
              <mxPoint y="540" />
            </Array>
          </mxGeometry>
        </mxCell>
        <mxCell id="23ZWPcW0NpWNjmYtjL-m-29" value="" style="shape=waypoint;sketch=0;fillStyle=solid;size=6;pointerEvents=1;points=[];fillColor=none;resizable=0;rotatable=0;perimeter=centerPerimeter;snapToPoint=1;" vertex="1" parent="1">
          <mxGeometry x="-9.999999999999998" y="530" width="20" height="20" as="geometry" />
        </mxCell>
        <mxCell id="23ZWPcW0NpWNjmYtjL-m-33" value="" style="shape=waypoint;sketch=0;fillStyle=solid;size=6;pointerEvents=1;points=[];fillColor=none;resizable=0;rotatable=0;perimeter=centerPerimeter;snapToPoint=1;" vertex="1" parent="1">
          <mxGeometry x="-9.999999999999998" y="570" width="20" height="20" as="geometry" />
        </mxCell>
        <mxCell id="23ZWPcW0NpWNjmYtjL-m-36" value="" style="shape=waypoint;sketch=0;fillStyle=solid;size=6;pointerEvents=1;points=[];fillColor=none;resizable=0;rotatable=0;perimeter=centerPerimeter;snapToPoint=1;" vertex="1" parent="1">
          <mxGeometry x="-9.999999999999998" y="610" width="20" height="20" as="geometry" />
        </mxCell>
        <mxCell id="23ZWPcW0NpWNjmYtjL-m-39" value="" style="shape=waypoint;sketch=0;fillStyle=solid;size=6;pointerEvents=1;points=[];fillColor=none;resizable=0;rotatable=0;perimeter=centerPerimeter;snapToPoint=1;" vertex="1" parent="1">
          <mxGeometry x="130" y="1210" width="20" height="20" as="geometry" />
        </mxCell>
        <mxCell id="23ZWPcW0NpWNjmYtjL-m-40" value="" style="shape=waypoint;sketch=0;fillStyle=solid;size=6;pointerEvents=1;points=[];fillColor=none;resizable=0;rotatable=0;perimeter=centerPerimeter;snapToPoint=1;" vertex="1" parent="1">
          <mxGeometry x="130" y="1230" width="20" height="20" as="geometry" />
        </mxCell>
        <mxCell id="23ZWPcW0NpWNjmYtjL-m-41" value="" style="shape=waypoint;sketch=0;fillStyle=solid;size=6;pointerEvents=1;points=[];fillColor=none;resizable=0;rotatable=0;perimeter=centerPerimeter;snapToPoint=1;" vertex="1" parent="1">
          <mxGeometry x="130" y="1250" width="20" height="20" as="geometry" />
        </mxCell>
        <mxCell id="23ZWPcW0NpWNjmYtjL-m-42" value="" style="shape=waypoint;sketch=0;fillStyle=solid;size=6;pointerEvents=1;points=[];fillColor=none;resizable=0;rotatable=0;perimeter=centerPerimeter;snapToPoint=1;" vertex="1" parent="1">
          <mxGeometry x="-10.000000000000007" y="650" width="20" height="20" as="geometry" />
        </mxCell>
        <mxCell id="23ZWPcW0NpWNjmYtjL-m-43" value="" style="shape=waypoint;sketch=0;fillStyle=solid;size=6;pointerEvents=1;points=[];fillColor=none;resizable=0;rotatable=0;perimeter=centerPerimeter;snapToPoint=1;" vertex="1" parent="1">
          <mxGeometry x="-10.000000000000007" y="670" width="20" height="20" as="geometry" />
        </mxCell>
        <mxCell id="23ZWPcW0NpWNjmYtjL-m-44" value="" style="shape=waypoint;sketch=0;fillStyle=solid;size=6;pointerEvents=1;points=[];fillColor=none;resizable=0;rotatable=0;perimeter=centerPerimeter;snapToPoint=1;" vertex="1" parent="1">
          <mxGeometry x="-10.000000000000007" y="690" width="20" height="20" as="geometry" />
        </mxCell>
        <mxCell id="23ZWPcW0NpWNjmYtjL-m-47" value="" style="endArrow=none;html=1;rounded=0;exitX=0.663;exitY=0.43;exitDx=0;exitDy=0;exitPerimeter=0;" edge="1" parent="1" source="23ZWPcW0NpWNjmYtjL-m-33" target="23ZWPcW0NpWNjmYtjL-m-29">
          <mxGeometry width="50" height="50" relative="1" as="geometry">
            <mxPoint x="-11.56" y="600" as="sourcePoint" />
            <mxPoint x="38.44" y="550" as="targetPoint" />
          </mxGeometry>
        </mxCell>
        <mxCell id="23ZWPcW0NpWNjmYtjL-m-48" value="" style="endArrow=none;html=1;rounded=0;exitX=0.395;exitY=0.523;exitDx=0;exitDy=0;exitPerimeter=0;entryX=0.642;entryY=0.472;entryDx=0;entryDy=0;entryPerimeter=0;" edge="1" parent="1" source="23ZWPcW0NpWNjmYtjL-m-36" target="23ZWPcW0NpWNjmYtjL-m-33">
          <mxGeometry width="50" height="50" relative="1" as="geometry">
            <mxPoint x="-11.56" y="600" as="sourcePoint" />
            <mxPoint x="38.44" y="550" as="targetPoint" />
          </mxGeometry>
        </mxCell>
        <mxCell id="23ZWPcW0NpWNjmYtjL-m-49" value="" style="endArrow=classic;html=1;rounded=0;exitX=0.652;exitY=0.575;exitDx=0;exitDy=0;exitPerimeter=0;entryX=0;entryY=0.5;entryDx=0;entryDy=0;" edge="1" parent="1" source="23ZWPcW0NpWNjmYtjL-m-33" target="23ZWPcW0NpWNjmYtjL-m-3">
          <mxGeometry width="50" height="50" relative="1" as="geometry">
            <mxPoint x="-10" y="600" as="sourcePoint" />
            <mxPoint x="40" y="550" as="targetPoint" />
          </mxGeometry>
        </mxCell>
        <mxCell id="23ZWPcW0NpWNjmYtjL-m-50" value="" style="endArrow=classic;html=1;rounded=0;entryX=0;entryY=0.5;entryDx=0;entryDy=0;" edge="1" parent="1" source="23ZWPcW0NpWNjmYtjL-m-36" target="23ZWPcW0NpWNjmYtjL-m-2">
          <mxGeometry width="50" height="50" relative="1" as="geometry">
            <mxPoint x="-10" y="600" as="sourcePoint" />
            <mxPoint x="40" y="550" as="targetPoint" />
          </mxGeometry>
        </mxCell>
        <mxCell id="23ZWPcW0NpWNjmYtjL-m-51" value="" style="endArrow=classic;html=1;rounded=0;entryX=0;entryY=0.5;entryDx=0;entryDy=0;edgeStyle=orthogonalEdgeStyle;" edge="1" parent="1" source="23ZWPcW0NpWNjmYtjL-m-52" target="23ZWPcW0NpWNjmYtjL-m-4">
          <mxGeometry width="50" height="50" relative="1" as="geometry">
            <mxPoint y="720" as="sourcePoint" />
            <mxPoint x="40" y="630" as="targetPoint" />
            <Array as="points">
              <mxPoint y="740" />
            </Array>
          </mxGeometry>
        </mxCell>
        <mxCell id="23ZWPcW0NpWNjmYtjL-m-52" value="" style="shape=waypoint;sketch=0;fillStyle=solid;size=6;pointerEvents=1;points=[];fillColor=none;resizable=0;rotatable=0;perimeter=centerPerimeter;snapToPoint=1;" vertex="1" parent="1">
          <mxGeometry x="-10" y="730" width="20" height="20" as="geometry" />
        </mxCell>
        <mxCell id="23ZWPcW0NpWNjmYtjL-m-55" value="" style="endArrow=none;html=1;rounded=0;exitX=0.668;exitY=0.468;exitDx=0;exitDy=0;exitPerimeter=0;" edge="1" parent="1" source="23ZWPcW0NpWNjmYtjL-m-52">
          <mxGeometry width="50" height="50" relative="1" as="geometry">
            <mxPoint x="170" y="770" as="sourcePoint" />
            <mxPoint y="720" as="targetPoint" />
          </mxGeometry>
        </mxCell>
        <mxCell id="23ZWPcW0NpWNjmYtjL-m-56" value="" style="endArrow=classic;html=1;rounded=0;edgeStyle=orthogonalEdgeStyle;exitDx=0;exitDy=0;exitPerimeter=0;entryX=0;entryY=0.5;entryDx=0;entryDy=0;" edge="1" parent="1" source="23ZWPcW0NpWNjmYtjL-m-57" target="23ZWPcW0NpWNjmYtjL-m-8">
          <mxGeometry width="50" height="50" relative="1" as="geometry">
            <mxPoint x="170" y="1050" as="sourcePoint" />
            <mxPoint x="220" y="1000" as="targetPoint" />
            <Array as="points">
              <mxPoint y="1100" />
            </Array>
          </mxGeometry>
        </mxCell>
        <mxCell id="23ZWPcW0NpWNjmYtjL-m-57" value="" style="shape=waypoint;sketch=0;fillStyle=solid;size=6;pointerEvents=1;points=[];fillColor=none;resizable=0;rotatable=0;perimeter=centerPerimeter;snapToPoint=1;" vertex="1" parent="1">
          <mxGeometry x="-10" y="1090" width="20" height="20" as="geometry" />
        </mxCell>
        <mxCell id="23ZWPcW0NpWNjmYtjL-m-59" value="" style="shape=waypoint;sketch=0;fillStyle=solid;size=6;pointerEvents=1;points=[];fillColor=none;resizable=0;rotatable=0;perimeter=centerPerimeter;snapToPoint=1;" vertex="1" parent="1">
          <mxGeometry x="-10" y="1130" width="20" height="20" as="geometry" />
        </mxCell>
        <mxCell id="23ZWPcW0NpWNjmYtjL-m-60" value="" style="shape=waypoint;sketch=0;fillStyle=solid;size=6;pointerEvents=1;points=[];fillColor=none;resizable=0;rotatable=0;perimeter=centerPerimeter;snapToPoint=1;" vertex="1" parent="1">
          <mxGeometry x="-10" y="1170" width="20" height="20" as="geometry" />
        </mxCell>
        <mxCell id="23ZWPcW0NpWNjmYtjL-m-62" value="" style="endArrow=none;html=1;rounded=0;exitX=0.521;exitY=0.388;exitDx=0;exitDy=0;exitPerimeter=0;entryX=0.469;entryY=0.671;entryDx=0;entryDy=0;entryPerimeter=0;" edge="1" parent="1" source="23ZWPcW0NpWNjmYtjL-m-60" target="23ZWPcW0NpWNjmYtjL-m-57">
          <mxGeometry width="50" height="50" relative="1" as="geometry">
            <mxPoint x="130" y="1160" as="sourcePoint" />
            <mxPoint x="180" y="1110" as="targetPoint" />
          </mxGeometry>
        </mxCell>
        <mxCell id="23ZWPcW0NpWNjmYtjL-m-63" value="" style="endArrow=classic;html=1;rounded=0;edgeStyle=orthogonalEdgeStyle;exitDx=0;exitDy=0;exitPerimeter=0;entryX=0;entryY=0.5;entryDx=0;entryDy=0;exitX=0.444;exitY=0.388;" edge="1" parent="1" source="23ZWPcW0NpWNjmYtjL-m-59" target="23ZWPcW0NpWNjmYtjL-m-9">
          <mxGeometry width="50" height="50" relative="1" as="geometry">
            <mxPoint x="10" y="1110" as="sourcePoint" />
            <mxPoint x="90" y="1110" as="targetPoint" />
            <Array as="points" />
          </mxGeometry>
        </mxCell>
        <mxCell id="23ZWPcW0NpWNjmYtjL-m-64" value="" style="endArrow=classic;html=1;rounded=0;edgeStyle=orthogonalEdgeStyle;exitDx=0;exitDy=0;exitPerimeter=0;entryX=0;entryY=0.5;entryDx=0;entryDy=0;" edge="1" parent="1">
          <mxGeometry width="50" height="50" relative="1" as="geometry">
            <mxPoint y="1179.74" as="sourcePoint" />
            <mxPoint x="80" y="1179.74" as="targetPoint" />
            <Array as="points">
              <mxPoint y="1179.74" />
            </Array>
          </mxGeometry>
        </mxCell>
        <mxCell id="23ZWPcW0NpWNjmYtjL-m-65" value="" style="shape=waypoint;sketch=0;fillStyle=solid;size=6;pointerEvents=1;points=[];fillColor=none;resizable=0;rotatable=0;perimeter=centerPerimeter;snapToPoint=1;" vertex="1" parent="1">
          <mxGeometry x="-10" y="1210" width="20" height="20" as="geometry" />
        </mxCell>
        <mxCell id="23ZWPcW0NpWNjmYtjL-m-66" value="" style="shape=waypoint;sketch=0;fillStyle=solid;size=6;pointerEvents=1;points=[];fillColor=none;resizable=0;rotatable=0;perimeter=centerPerimeter;snapToPoint=1;" vertex="1" parent="1">
          <mxGeometry x="-10" y="1230" width="20" height="20" as="geometry" />
        </mxCell>
        <mxCell id="23ZWPcW0NpWNjmYtjL-m-67" value="" style="shape=waypoint;sketch=0;fillStyle=solid;size=6;pointerEvents=1;points=[];fillColor=none;resizable=0;rotatable=0;perimeter=centerPerimeter;snapToPoint=1;" vertex="1" parent="1">
          <mxGeometry x="-10" y="1250" width="20" height="20" as="geometry" />
        </mxCell>
        <mxCell id="23ZWPcW0NpWNjmYtjL-m-68" value="" style="shape=waypoint;sketch=0;fillStyle=solid;size=6;pointerEvents=1;points=[];fillColor=none;resizable=0;rotatable=0;perimeter=centerPerimeter;snapToPoint=1;" vertex="1" parent="1">
          <mxGeometry x="-9.999999999999998" y="1290" width="20" height="20" as="geometry" />
        </mxCell>
        <mxCell id="23ZWPcW0NpWNjmYtjL-m-69" value="" style="endArrow=classic;html=1;rounded=0;entryX=0;entryY=0.5;entryDx=0;entryDy=0;" edge="1" parent="1" source="23ZWPcW0NpWNjmYtjL-m-68" target="23ZWPcW0NpWNjmYtjL-m-11">
          <mxGeometry width="50" height="50" relative="1" as="geometry">
            <mxPoint x="50" y="1250" as="sourcePoint" />
            <mxPoint x="100" y="1200" as="targetPoint" />
          </mxGeometry>
        </mxCell>
        <mxCell id="23ZWPcW0NpWNjmYtjL-m-70" value="" style="endArrow=none;html=1;rounded=0;" edge="1" parent="1" source="23ZWPcW0NpWNjmYtjL-m-68">
          <mxGeometry width="50" height="50" relative="1" as="geometry">
            <mxPoint x="50" y="1250" as="sourcePoint" />
            <mxPoint y="1280" as="targetPoint" />
          </mxGeometry>
        </mxCell>
        <mxCell id="23ZWPcW0NpWNjmYtjL-m-71" value="" style="endArrow=none;html=1;rounded=0;" edge="1" parent="1" source="23ZWPcW0NpWNjmYtjL-m-60">
          <mxGeometry width="50" height="50" relative="1" as="geometry">
            <mxPoint x="50" y="1250" as="sourcePoint" />
            <mxPoint y="1200" as="targetPoint" />
          </mxGeometry>
        </mxCell>
        <mxCell id="23ZWPcW0NpWNjmYtjL-m-72" value="" style="endArrow=none;html=1;rounded=0;" edge="1" parent="1" source="23ZWPcW0NpWNjmYtjL-m-57" target="23ZWPcW0NpWNjmYtjL-m-52">
          <mxGeometry width="50" height="50" relative="1" as="geometry">
            <mxPoint x="10" y="800" as="sourcePoint" />
            <mxPoint x="60" y="750" as="targetPoint" />
          </mxGeometry>
        </mxCell>
        <mxCell id="23ZWPcW0NpWNjmYtjL-m-73" value="" style="endArrow=none;html=1;rounded=0;exitX=0.359;exitY=0.67;exitDx=0;exitDy=0;exitPerimeter=0;" edge="1" parent="1" source="23ZWPcW0NpWNjmYtjL-m-36">
          <mxGeometry width="50" height="50" relative="1" as="geometry">
            <mxPoint x="190" y="560" as="sourcePoint" />
            <mxPoint y="640" as="targetPoint" />
          </mxGeometry>
        </mxCell>
        <mxCell id="23ZWPcW0NpWNjmYtjL-m-81" value="A_SHR[0]" style="rounded=0;whiteSpace=wrap;html=1;fontStyle=1" vertex="1" parent="1">
          <mxGeometry x="420" y="290" width="200" height="40" as="geometry" />
        </mxCell>
        <mxCell id="23ZWPcW0NpWNjmYtjL-m-82" value="A_SHR[2]" style="rounded=0;whiteSpace=wrap;html=1;fontStyle=1" vertex="1" parent="1">
          <mxGeometry x="420" y="370" width="200" height="40" as="geometry" />
        </mxCell>
        <mxCell id="23ZWPcW0NpWNjmYtjL-m-83" value="A_SHR[1]" style="rounded=0;whiteSpace=wrap;html=1;fontStyle=1" vertex="1" parent="1">
          <mxGeometry x="420" y="330" width="200" height="40" as="geometry" />
        </mxCell>
        <mxCell id="23ZWPcW0NpWNjmYtjL-m-84" value="A_SHR[N-1]" style="rounded=0;whiteSpace=wrap;html=1;fontStyle=1" vertex="1" parent="1">
          <mxGeometry x="420" y="490" width="200" height="40" as="geometry" />
        </mxCell>
        <mxCell id="23ZWPcW0NpWNjmYtjL-m-85" value="" style="shape=waypoint;sketch=0;fillStyle=solid;size=6;pointerEvents=1;points=[];fillColor=none;resizable=0;rotatable=0;perimeter=centerPerimeter;snapToPoint=1;" vertex="1" parent="1">
          <mxGeometry x="510" y="420" width="20" height="20" as="geometry" />
        </mxCell>
        <mxCell id="23ZWPcW0NpWNjmYtjL-m-86" value="" style="shape=waypoint;sketch=0;fillStyle=solid;size=6;pointerEvents=1;points=[];fillColor=none;resizable=0;rotatable=0;perimeter=centerPerimeter;snapToPoint=1;" vertex="1" parent="1">
          <mxGeometry x="510" y="440" width="20" height="20" as="geometry" />
        </mxCell>
        <mxCell id="23ZWPcW0NpWNjmYtjL-m-87" value="" style="shape=waypoint;sketch=0;fillStyle=solid;size=6;pointerEvents=1;points=[];fillColor=none;resizable=0;rotatable=0;perimeter=centerPerimeter;snapToPoint=1;" vertex="1" parent="1">
          <mxGeometry x="510" y="460" width="20" height="20" as="geometry" />
        </mxCell>
        <mxCell id="23ZWPcW0NpWNjmYtjL-m-88" value="A_CNT_SHR[1]" style="rounded=0;whiteSpace=wrap;html=1;fontStyle=1" vertex="1" parent="1">
          <mxGeometry x="460" y="800" width="120" height="40" as="geometry" />
        </mxCell>
        <mxCell id="23ZWPcW0NpWNjmYtjL-m-89" value="A_CNT_SHR[2]" style="rounded=0;whiteSpace=wrap;html=1;fontStyle=1" vertex="1" parent="1">
          <mxGeometry x="460" y="840" width="120" height="40" as="geometry" />
        </mxCell>
        <mxCell id="23ZWPcW0NpWNjmYtjL-m-90" value="A_CNT_SHR[3]" style="rounded=0;whiteSpace=wrap;html=1;fontStyle=1" vertex="1" parent="1">
          <mxGeometry x="460" y="880" width="120" height="40" as="geometry" />
        </mxCell>
        <mxCell id="23ZWPcW0NpWNjmYtjL-m-91" value="A_CNT_SHR[N-1]" style="rounded=0;whiteSpace=wrap;html=1;fontStyle=1" vertex="1" parent="1">
          <mxGeometry x="460" y="1000" width="120" height="40" as="geometry" />
        </mxCell>
        <mxCell id="23ZWPcW0NpWNjmYtjL-m-92" value="" style="shape=waypoint;sketch=0;fillStyle=solid;size=6;pointerEvents=1;points=[];fillColor=none;resizable=0;rotatable=0;perimeter=centerPerimeter;snapToPoint=1;" vertex="1" parent="1">
          <mxGeometry x="370" y="300" width="20" height="20" as="geometry" />
        </mxCell>
        <mxCell id="23ZWPcW0NpWNjmYtjL-m-93" value="" style="shape=waypoint;sketch=0;fillStyle=solid;size=6;pointerEvents=1;points=[];fillColor=none;resizable=0;rotatable=0;perimeter=centerPerimeter;snapToPoint=1;" vertex="1" parent="1">
          <mxGeometry x="370" y="340" width="20" height="20" as="geometry" />
        </mxCell>
        <mxCell id="23ZWPcW0NpWNjmYtjL-m-94" value="" style="shape=waypoint;sketch=0;fillStyle=solid;size=6;pointerEvents=1;points=[];fillColor=none;resizable=0;rotatable=0;perimeter=centerPerimeter;snapToPoint=1;" vertex="1" parent="1">
          <mxGeometry x="370" y="380" width="20" height="20" as="geometry" />
        </mxCell>
        <mxCell id="23ZWPcW0NpWNjmYtjL-m-95" value="" style="shape=waypoint;sketch=0;fillStyle=solid;size=6;pointerEvents=1;points=[];fillColor=none;resizable=0;rotatable=0;perimeter=centerPerimeter;snapToPoint=1;" vertex="1" parent="1">
          <mxGeometry x="510" y="930" width="20" height="20" as="geometry" />
        </mxCell>
        <mxCell id="23ZWPcW0NpWNjmYtjL-m-96" value="" style="shape=waypoint;sketch=0;fillStyle=solid;size=6;pointerEvents=1;points=[];fillColor=none;resizable=0;rotatable=0;perimeter=centerPerimeter;snapToPoint=1;" vertex="1" parent="1">
          <mxGeometry x="510" y="950" width="20" height="20" as="geometry" />
        </mxCell>
        <mxCell id="23ZWPcW0NpWNjmYtjL-m-97" value="" style="shape=waypoint;sketch=0;fillStyle=solid;size=6;pointerEvents=1;points=[];fillColor=none;resizable=0;rotatable=0;perimeter=centerPerimeter;snapToPoint=1;" vertex="1" parent="1">
          <mxGeometry x="510" y="970" width="20" height="20" as="geometry" />
        </mxCell>
        <mxCell id="23ZWPcW0NpWNjmYtjL-m-98" value="" style="shape=waypoint;sketch=0;fillStyle=solid;size=6;pointerEvents=1;points=[];fillColor=none;resizable=0;rotatable=0;perimeter=centerPerimeter;snapToPoint=1;" vertex="1" parent="1">
          <mxGeometry x="370" y="420" width="20" height="20" as="geometry" />
        </mxCell>
        <mxCell id="23ZWPcW0NpWNjmYtjL-m-99" value="" style="shape=waypoint;sketch=0;fillStyle=solid;size=6;pointerEvents=1;points=[];fillColor=none;resizable=0;rotatable=0;perimeter=centerPerimeter;snapToPoint=1;" vertex="1" parent="1">
          <mxGeometry x="370" y="440" width="20" height="20" as="geometry" />
        </mxCell>
        <mxCell id="23ZWPcW0NpWNjmYtjL-m-100" value="" style="shape=waypoint;sketch=0;fillStyle=solid;size=6;pointerEvents=1;points=[];fillColor=none;resizable=0;rotatable=0;perimeter=centerPerimeter;snapToPoint=1;" vertex="1" parent="1">
          <mxGeometry x="370" y="460" width="20" height="20" as="geometry" />
        </mxCell>
        <mxCell id="23ZWPcW0NpWNjmYtjL-m-101" value="" style="endArrow=none;html=1;rounded=0;exitX=0.663;exitY=0.43;exitDx=0;exitDy=0;exitPerimeter=0;" edge="1" parent="1" source="23ZWPcW0NpWNjmYtjL-m-93" target="23ZWPcW0NpWNjmYtjL-m-92">
          <mxGeometry width="50" height="50" relative="1" as="geometry">
            <mxPoint x="368.44" y="370" as="sourcePoint" />
            <mxPoint x="418.44" y="320" as="targetPoint" />
          </mxGeometry>
        </mxCell>
        <mxCell id="23ZWPcW0NpWNjmYtjL-m-102" value="" style="endArrow=none;html=1;rounded=0;exitX=0.395;exitY=0.523;exitDx=0;exitDy=0;exitPerimeter=0;entryX=0.642;entryY=0.472;entryDx=0;entryDy=0;entryPerimeter=0;" edge="1" parent="1" source="23ZWPcW0NpWNjmYtjL-m-94" target="23ZWPcW0NpWNjmYtjL-m-93">
          <mxGeometry width="50" height="50" relative="1" as="geometry">
            <mxPoint x="368.44" y="370" as="sourcePoint" />
            <mxPoint x="418.44" y="320" as="targetPoint" />
          </mxGeometry>
        </mxCell>
        <mxCell id="23ZWPcW0NpWNjmYtjL-m-103" value="" style="endArrow=classic;html=1;rounded=0;exitX=0.652;exitY=0.575;exitDx=0;exitDy=0;exitPerimeter=0;entryX=0;entryY=0.5;entryDx=0;entryDy=0;" edge="1" parent="1" source="23ZWPcW0NpWNjmYtjL-m-93" target="23ZWPcW0NpWNjmYtjL-m-83">
          <mxGeometry width="50" height="50" relative="1" as="geometry">
            <mxPoint x="370" y="370" as="sourcePoint" />
            <mxPoint x="420" y="320" as="targetPoint" />
          </mxGeometry>
        </mxCell>
        <mxCell id="23ZWPcW0NpWNjmYtjL-m-104" value="" style="endArrow=classic;html=1;rounded=0;entryX=0;entryY=0.5;entryDx=0;entryDy=0;" edge="1" parent="1" source="23ZWPcW0NpWNjmYtjL-m-94" target="23ZWPcW0NpWNjmYtjL-m-82">
          <mxGeometry width="50" height="50" relative="1" as="geometry">
            <mxPoint x="370" y="370" as="sourcePoint" />
            <mxPoint x="420" y="320" as="targetPoint" />
          </mxGeometry>
        </mxCell>
        <mxCell id="23ZWPcW0NpWNjmYtjL-m-105" value="" style="endArrow=classic;html=1;rounded=0;entryX=0;entryY=0.5;entryDx=0;entryDy=0;edgeStyle=orthogonalEdgeStyle;" edge="1" parent="1" source="23ZWPcW0NpWNjmYtjL-m-106" target="23ZWPcW0NpWNjmYtjL-m-84">
          <mxGeometry width="50" height="50" relative="1" as="geometry">
            <mxPoint x="380" y="490" as="sourcePoint" />
            <mxPoint x="420" y="400" as="targetPoint" />
            <Array as="points">
              <mxPoint x="380" y="510" />
            </Array>
          </mxGeometry>
        </mxCell>
        <mxCell id="23ZWPcW0NpWNjmYtjL-m-106" value="" style="shape=waypoint;sketch=0;fillStyle=solid;size=6;pointerEvents=1;points=[];fillColor=none;resizable=0;rotatable=0;perimeter=centerPerimeter;snapToPoint=1;" vertex="1" parent="1">
          <mxGeometry x="370" y="500" width="20" height="20" as="geometry" />
        </mxCell>
        <mxCell id="23ZWPcW0NpWNjmYtjL-m-107" value="" style="endArrow=none;html=1;rounded=0;exitX=0.668;exitY=0.468;exitDx=0;exitDy=0;exitPerimeter=0;" edge="1" parent="1" source="23ZWPcW0NpWNjmYtjL-m-106">
          <mxGeometry width="50" height="50" relative="1" as="geometry">
            <mxPoint x="550" y="540" as="sourcePoint" />
            <mxPoint x="380" y="490" as="targetPoint" />
          </mxGeometry>
        </mxCell>
        <mxCell id="23ZWPcW0NpWNjmYtjL-m-108" value="" style="endArrow=classic;html=1;rounded=0;edgeStyle=orthogonalEdgeStyle;exitDx=0;exitDy=0;exitPerimeter=0;entryX=0;entryY=0.5;entryDx=0;entryDy=0;" edge="1" parent="1" source="23ZWPcW0NpWNjmYtjL-m-109" target="23ZWPcW0NpWNjmYtjL-m-88">
          <mxGeometry width="50" height="50" relative="1" as="geometry">
            <mxPoint x="550" y="770" as="sourcePoint" />
            <mxPoint x="600" y="720" as="targetPoint" />
            <Array as="points">
              <mxPoint x="380" y="820" />
            </Array>
          </mxGeometry>
        </mxCell>
        <mxCell id="23ZWPcW0NpWNjmYtjL-m-109" value="" style="shape=waypoint;sketch=0;fillStyle=solid;size=6;pointerEvents=1;points=[];fillColor=none;resizable=0;rotatable=0;perimeter=centerPerimeter;snapToPoint=1;" vertex="1" parent="1">
          <mxGeometry x="370" y="810" width="20" height="20" as="geometry" />
        </mxCell>
        <mxCell id="23ZWPcW0NpWNjmYtjL-m-110" value="" style="shape=waypoint;sketch=0;fillStyle=solid;size=6;pointerEvents=1;points=[];fillColor=none;resizable=0;rotatable=0;perimeter=centerPerimeter;snapToPoint=1;" vertex="1" parent="1">
          <mxGeometry x="370" y="850" width="20" height="20" as="geometry" />
        </mxCell>
        <mxCell id="23ZWPcW0NpWNjmYtjL-m-111" value="" style="shape=waypoint;sketch=0;fillStyle=solid;size=6;pointerEvents=1;points=[];fillColor=none;resizable=0;rotatable=0;perimeter=centerPerimeter;snapToPoint=1;" vertex="1" parent="1">
          <mxGeometry x="370" y="890" width="20" height="20" as="geometry" />
        </mxCell>
        <mxCell id="23ZWPcW0NpWNjmYtjL-m-112" value="" style="endArrow=none;html=1;rounded=0;exitX=0.521;exitY=0.388;exitDx=0;exitDy=0;exitPerimeter=0;entryX=0.469;entryY=0.671;entryDx=0;entryDy=0;entryPerimeter=0;" edge="1" parent="1" source="23ZWPcW0NpWNjmYtjL-m-111" target="23ZWPcW0NpWNjmYtjL-m-109">
          <mxGeometry width="50" height="50" relative="1" as="geometry">
            <mxPoint x="510" y="880" as="sourcePoint" />
            <mxPoint x="560" y="830" as="targetPoint" />
          </mxGeometry>
        </mxCell>
        <mxCell id="23ZWPcW0NpWNjmYtjL-m-113" value="" style="endArrow=classic;html=1;rounded=0;edgeStyle=orthogonalEdgeStyle;exitDx=0;exitDy=0;exitPerimeter=0;entryX=0;entryY=0.5;entryDx=0;entryDy=0;exitX=0.444;exitY=0.388;" edge="1" parent="1" source="23ZWPcW0NpWNjmYtjL-m-110" target="23ZWPcW0NpWNjmYtjL-m-89">
          <mxGeometry width="50" height="50" relative="1" as="geometry">
            <mxPoint x="390" y="830" as="sourcePoint" />
            <mxPoint x="470" y="830" as="targetPoint" />
            <Array as="points" />
          </mxGeometry>
        </mxCell>
        <mxCell id="23ZWPcW0NpWNjmYtjL-m-114" value="" style="endArrow=classic;html=1;rounded=0;edgeStyle=orthogonalEdgeStyle;exitDx=0;exitDy=0;exitPerimeter=0;entryX=0;entryY=0.5;entryDx=0;entryDy=0;" edge="1" parent="1">
          <mxGeometry width="50" height="50" relative="1" as="geometry">
            <mxPoint x="380" y="899.74" as="sourcePoint" />
            <mxPoint x="460" y="899.74" as="targetPoint" />
            <Array as="points">
              <mxPoint x="380" y="899.74" />
            </Array>
          </mxGeometry>
        </mxCell>
        <mxCell id="23ZWPcW0NpWNjmYtjL-m-115" value="" style="shape=waypoint;sketch=0;fillStyle=solid;size=6;pointerEvents=1;points=[];fillColor=none;resizable=0;rotatable=0;perimeter=centerPerimeter;snapToPoint=1;" vertex="1" parent="1">
          <mxGeometry x="370" y="930" width="20" height="20" as="geometry" />
        </mxCell>
        <mxCell id="23ZWPcW0NpWNjmYtjL-m-116" value="" style="shape=waypoint;sketch=0;fillStyle=solid;size=6;pointerEvents=1;points=[];fillColor=none;resizable=0;rotatable=0;perimeter=centerPerimeter;snapToPoint=1;" vertex="1" parent="1">
          <mxGeometry x="370" y="950" width="20" height="20" as="geometry" />
        </mxCell>
        <mxCell id="23ZWPcW0NpWNjmYtjL-m-117" value="" style="shape=waypoint;sketch=0;fillStyle=solid;size=6;pointerEvents=1;points=[];fillColor=none;resizable=0;rotatable=0;perimeter=centerPerimeter;snapToPoint=1;" vertex="1" parent="1">
          <mxGeometry x="370" y="970" width="20" height="20" as="geometry" />
        </mxCell>
        <mxCell id="23ZWPcW0NpWNjmYtjL-m-118" value="" style="shape=waypoint;sketch=0;fillStyle=solid;size=6;pointerEvents=1;points=[];fillColor=none;resizable=0;rotatable=0;perimeter=centerPerimeter;snapToPoint=1;" vertex="1" parent="1">
          <mxGeometry x="370" y="1010" width="20" height="20" as="geometry" />
        </mxCell>
        <mxCell id="23ZWPcW0NpWNjmYtjL-m-119" value="" style="endArrow=classic;html=1;rounded=0;entryX=0;entryY=0.5;entryDx=0;entryDy=0;" edge="1" parent="1" source="23ZWPcW0NpWNjmYtjL-m-118" target="23ZWPcW0NpWNjmYtjL-m-91">
          <mxGeometry width="50" height="50" relative="1" as="geometry">
            <mxPoint x="430" y="970" as="sourcePoint" />
            <mxPoint x="480" y="920" as="targetPoint" />
          </mxGeometry>
        </mxCell>
        <mxCell id="23ZWPcW0NpWNjmYtjL-m-120" value="" style="endArrow=none;html=1;rounded=0;" edge="1" parent="1" source="23ZWPcW0NpWNjmYtjL-m-118">
          <mxGeometry width="50" height="50" relative="1" as="geometry">
            <mxPoint x="430" y="970" as="sourcePoint" />
            <mxPoint x="380" y="1000" as="targetPoint" />
          </mxGeometry>
        </mxCell>
        <mxCell id="23ZWPcW0NpWNjmYtjL-m-121" value="" style="endArrow=none;html=1;rounded=0;" edge="1" parent="1" source="23ZWPcW0NpWNjmYtjL-m-111">
          <mxGeometry width="50" height="50" relative="1" as="geometry">
            <mxPoint x="430" y="970" as="sourcePoint" />
            <mxPoint x="380" y="920" as="targetPoint" />
          </mxGeometry>
        </mxCell>
        <mxCell id="23ZWPcW0NpWNjmYtjL-m-122" value="" style="endArrow=none;html=1;rounded=0;" edge="1" parent="1" source="23ZWPcW0NpWNjmYtjL-m-109" target="23ZWPcW0NpWNjmYtjL-m-106">
          <mxGeometry width="50" height="50" relative="1" as="geometry">
            <mxPoint x="390" y="570" as="sourcePoint" />
            <mxPoint x="440" y="520" as="targetPoint" />
          </mxGeometry>
        </mxCell>
        <mxCell id="23ZWPcW0NpWNjmYtjL-m-123" value="" style="endArrow=none;html=1;rounded=0;exitX=0.359;exitY=0.67;exitDx=0;exitDy=0;exitPerimeter=0;" edge="1" parent="1" source="23ZWPcW0NpWNjmYtjL-m-94">
          <mxGeometry width="50" height="50" relative="1" as="geometry">
            <mxPoint x="570" y="330" as="sourcePoint" />
            <mxPoint x="380" y="410" as="targetPoint" />
          </mxGeometry>
        </mxCell>
      </root>
    </mxGraphModel>
  </diagram>
</mxfile>
